<svg width="30" height="57" viewBox="0 0 30 57" fill="none" xmlns="http://www.w3.org/2000/svg">
<path d="M0.666748 48.6667H22.0001V56.6667H0.666748V48.6667ZM27.1734 0.666671C25.7334 0.426671 24.3201 1.33334 24.0267 2.8L21.3334 18.1867C20.7467 18.1067 20.1067 18 19.3334 17.92L18.1867 18L15.0934 2.8C14.8267 1.36 13.4134 0.426671 11.9734 0.666671C10.5334 1.01334 9.60008 2.42667 9.86675 3.86667L13.0667 19.6267L2.93341 24.1333C1.60008 24.6667 0.666748 26.08 0.666748 27.7067V39.3333C0.666748 41.4667 2.61341 43.3333 4.66675 43.3333H22.0001C23.0401 43.3333 23.9734 42.9067 24.6667 42.1867L26.0001 41.0933C26.0001 41.0933 27.3334 40.08 27.3334 38.96V32.6667C27.3334 32.6667 27.3334 29.6267 25.0134 28.1333L29.2267 3.86667C29.5467 2.42667 28.6667 1.01334 27.1734 0.666671Z" fill="#6357FF"/>
</svg>
