<svg width="54" height="47" viewBox="0 0 54 47" fill="none" xmlns="http://www.w3.org/2000/svg">
<path d="M27 34.6667C24.8783 34.6667 22.8435 33.8238 21.3432 32.3235C19.8429 30.8232 19 28.7884 19 26.6667C19 23.68 20.6267 21.0667 23 19.7067L48.8934 4.72L34.1467 30.2667C32.8134 32.88 30.12 34.6667 27 34.6667ZM27 0C31.8267 0 36.3334 1.33333 40.2534 3.52L34.6534 6.74667C32.3334 5.84 29.6667 5.33333 27 5.33333C21.3421 5.33333 15.9159 7.58095 11.9151 11.5817C7.91432 15.5825 5.66671 21.0087 5.66671 26.6667C5.66671 32.56 8.04004 37.8933 11.9067 41.7333H11.9334C12.9734 42.7733 12.9734 44.4533 11.9334 45.4933C10.8934 46.5333 9.18671 46.5333 8.14671 45.52C3.32004 40.6933 0.333374 34.0267 0.333374 26.6667C0.333374 19.5942 3.14289 12.8115 8.14386 7.81049C13.1448 2.80952 19.9276 0 27 0ZM53.6667 26.6667C53.6667 34.0267 50.68 40.6933 45.8534 45.52C44.8134 46.5333 43.1334 46.5333 42.0934 45.4933C41.0534 44.4533 41.0534 42.7733 42.0934 41.7333C45.96 37.8667 48.3334 32.56 48.3334 26.6667C48.3334 24 47.8267 21.3333 46.8934 18.9333L50.12 13.3333C52.3334 17.3333 53.6667 21.8133 53.6667 26.6667Z" fill="#6357FF"/>
</svg>
